<svg xmlns="http://www.w3.org/2000/svg" aria-label="Person marker icon" viewBox="0 0 512 512">
  <path fill="#d52b1e" d="m247 13-1 1h-4l-1 1h-3l-1 1-5 1-6 3-2 2-3 1-3 3h-1l-12 13-6 11v2l-3 7v4l-1 1v20l1 1v3l1 1 1 6 6 12 7 8v1l8 7 12 7h2l7 3h3l1 1h5l1 1h11l1-1h5l1-1h3l1-1 8-2 6-3 2-2 4-2 5-5h1l7-8 3-6 2-2v-2l3-5 1-6 1-1v-3l1-1V64l-1-1v-4l-1-1-2-8-4-8-5-6v-1l-13-12-3-1-2-2-4-2h-2l-3-2-6-1-1-1h-4l-1-1Zm-35 142-3 2h-2l-4 2-2 2-6 3-4 4h-1l-10 11-7 13v2l-2 3v3l-1 1v4l-1 1v6l-1 1v7l-1 1v7l-1 1v7l-1 1v7l-1 1v7l-1 1v7l-1 1-1 13 1 1 1 4 6 5 6 1 1 1h5l1 1 11 1 1 1h6l1 1v4l1 1v16l1 1v17l1 1v16l1 1v16l1 1 1 34 1 1v15l1 1v4l2 4 5 5 7 3h63l7-3 5-5 1-4 1-1v-3l1-1 1-33 1-1v-16l1-1v-16l1-1v-16l1-1v-17l1-1v-16l1-1v-4l1-1h6l1-1h5l1-1h5l1-1h5l1-1 6-1 6-5 1-4 1-1v-5l-1-1v-8l-1-1v-7l-1-1v-8l-1-1v-8l-1-1v-7l-1-1v-8l-1-1-1-8-1-1-2-8-9-15-14-13-13-7h-2l-4-2h-3l-1-1h-5l-1-1h-61l-1 1h-4l-1 1Z"/>
  <path fill="#38f" d="M87 417v11l1 1v4l1 1v3l5 10 13 14h1l3 3h1l8 6 16 8h2l3 2h2l6 3 6 1 7 3h3l1 1h3l1 1h3l1 1h3l1 1 9 1 1 1h5l1 1 14 1 1 1h9l1 1h12l1 1h46l1-1 23-1 1-1h6l1-1h7l1-1 10-1 1-1h3l1-1h3l1-1h4l1-1 7-1 1-1h2l1-1 14-4 3-2 7-2 12-6 2-2 3-1 2-2 4-2 4-4h1l9-9v-1l4-5 3-6v-2l2-4v-4l1-1v-10l-1-1v-4l-1-1-1-5-7-12-10-10h-1l-3-3h-1l-5-4-3-1-2-2-12-6h-2l-3-2-5-1-3-2h-2l-7-3h-3l-1-1h-3l-1-1h-2l-1-1h-4l-1-1h-2v14l-1 1v16l-1 1v2l6 1 1 1 14 4 21 10 11 9 3 5v4l-2 4-6 6h-1l-3 3-3 1-2 2-8 4h-2l-5 3-5 1-3 2h-2l-4 2h-3l-4 2h-3l-1 1h-4l-1 1-8 1-1 1h-4l-1 1h-6l-1 1h-5l-1 1h-7l-1 1h-12l-1 1h-51l-1-1h-10l-1-1-15-1-1-1-11-1-1-1h-3l-1-1h-4l-1-1-7-1-4-2h-3l-1-1-11-3-19-9-2-2-4-2-7-7-2-4v-5l9-10h1l5-4 19-9h2l7-3h3l4-2 6-1v-2l-1-1-1-31-11 2-4 2h-3l-1 1-14 4-3 2h-2l-3 2h-2l-8 4-2 2-3 1-2 2-6 3-3 3h-1l-13 14-5 10v2l-1 1v4Z"/>
</svg>
